<svg width="35" height="35" viewBox="0 0 35 35" fill="none" xmlns="http://www.w3.org/2000/svg">
<path fill-rule="evenodd" clip-rule="evenodd" d="M21.0188 0.7227C21.0188 1.12184 20.6877 1.4454 20.2793 1.4454C19.8709 1.4454 19.5398 1.12184 19.5398 0.7227C19.5398 0.323564 19.8709 0 20.2793 0C20.6877 0 21.0188 0.323564 21.0188 0.7227ZM9.18701 3.6135C9.18701 4.01263 8.85593 4.3362 8.44753 4.3362C8.03912 4.3362 7.70804 4.01263 7.70804 3.6135C7.70804 3.21436 8.03912 2.8908 8.44753 2.8908C8.85593 2.8908 9.18701 3.21436 9.18701 3.6135ZM6.96856 6.32363C6.96856 7.02211 6.38917 7.58835 5.67446 7.58835C4.95975 7.58835 4.38036 7.02211 4.38036 6.32363C4.38036 5.62514 4.95975 5.0589 5.67446 5.0589C6.38917 5.0589 6.96856 5.62514 6.96856 6.32363ZM4.38034 10.4791C4.38034 11.2774 3.71818 11.9245 2.90137 11.9245C2.08455 11.9245 1.42239 11.2774 1.42239 10.4791C1.42239 9.68087 2.08455 9.03375 2.90137 9.03375C3.71818 9.03375 4.38034 9.68087 4.38034 10.4791ZM1.23753 17.3448C1.90316 18.5157 4.1025 19.5929 6.38604 20.7114L6.38605 20.7114C7.27374 21.1462 8.17415 21.5872 9.00213 22.0423C9.85261 22.5099 10.8581 23.1221 11.9245 23.7714L11.9249 23.7716L11.9249 23.7716C14.5673 25.3804 17.5832 27.2167 19.5398 27.6433C22.8628 28.3677 27.2219 26.7947 29.8926 23.6684C32.205 20.9615 34.4843 17.2346 34.0723 13.2777C34.3449 14.3736 34.6495 15.6091 34.8842 16.6221C35.2539 18.6095 34.6993 22.0423 33.7749 23.6684C32.679 25.5963 29.7078 29.2693 24.5314 30.1727C20.3902 30.8954 15.6575 28.6671 13.8088 27.4626L7.33827 23.6684C5.18143 22.6446 1.60727 20.9583 0.128271 21.3196C-0.0510674 21.3635 -0.241471 12.8279 1.05263 12.6472C0.621264 13.4904 0.313145 15.7187 1.23753 17.3448ZM34.0723 13.2777L33.8949 12.5652L33.8944 12.5629L33.8941 12.5618L33.8928 12.5568C33.7305 11.9055 33.591 11.3457 33.5014 10.9733C33.2948 11.5282 32.7503 11.9245 32.1111 11.9245C31.2943 11.9245 30.6322 11.2774 30.6322 10.4791C30.6322 9.68087 31.2943 9.03375 32.1111 9.03375C32.9279 9.03375 33.5901 9.68087 33.5901 10.4791C33.5901 10.6234 33.5685 10.7628 33.5282 10.8942C33.5878 11.0945 33.669 11.374 33.7749 11.7439C33.9222 12.2578 34.0194 12.7696 34.0723 13.2777ZM1.05265 24.7525C0.729901 24.092 0.394708 22.9924 0.498039 22.9457C0.63567 22.5614 5.27051 23.5742 7.28969 24.9128C5.87933 24.4777 5.30471 24.3911 3.82573 24.3911C2.34676 24.3911 1.05265 24.7525 1.05265 24.7525ZM1.79214 26.3785C2.34676 27.1615 3.49296 28.7634 3.64086 28.908C3.70595 28.9716 3.85974 28.9325 4.14573 28.8597C4.67196 28.7257 5.6458 28.4778 7.33827 28.5466C9.84517 28.6485 12.8518 29.9783 15.2878 31.0761C18.2364 32.4049 23.3344 33.2101 25.6406 32.5215C28.7598 31.5901 30.9669 29.6408 32.1111 28.0046C32.2755 27.7695 32.3728 27.641 32.4071 27.5968C32.1918 27.8634 29.526 31.0384 25.4557 31.4374C21.0066 31.8736 17.6374 30.6832 16.397 30.1727C16.0877 30.0454 15.4945 29.7731 14.74 29.4268C12.4263 28.3648 8.59596 26.6066 6.78368 26.1979C4.38035 25.6558 2.70882 25.9521 1.79214 26.3785ZM9.00215 33.2442C7.76673 32.5724 6.33269 31.5652 5.85932 31.0761C8.29912 30.6107 10.2071 31.0241 14.3634 32.7022C17.2272 33.955 18.7935 34.2686 21.5734 34.6896C19.3547 35.5272 11.3908 34.5431 9.00215 33.2442ZM29.338 7.58835C30.0528 7.58835 30.6322 7.02211 30.6322 6.32363C30.6322 5.62514 30.0528 5.0589 29.338 5.0589C28.6233 5.0589 28.0439 5.62514 28.0439 6.32363C28.0439 7.02211 28.6233 7.58835 29.338 7.58835ZM26.565 4.3362C26.9734 4.3362 27.3045 4.01263 27.3045 3.6135C27.3045 3.21436 26.9734 2.8908 26.565 2.8908C26.1566 2.8908 25.8255 3.21436 25.8255 3.6135C25.8255 4.01263 26.1566 4.3362 26.565 4.3362ZM14.3634 1.4454C14.7718 1.4454 15.1029 1.12184 15.1029 0.7227C15.1029 0.323564 14.7718 0 14.3634 0C13.955 0 13.6239 0.323564 13.6239 0.7227C13.6239 1.12184 13.955 1.4454 14.3634 1.4454ZM7.21 17.7061C4.55318 13.3699 6.74092 8.95167 13.3108 8.13037C12.8801 4.79712 14.8138 3.39958 17.5628 3.1898C20.2305 3.29797 22.0104 4.80432 21.6602 8.13037C27.6643 8.36846 30.9038 13.0086 28.5004 17.7061C26.0971 22.4037 22.7695 25.6343 18.3023 26.5592L18.251 26.5317C13.5682 24.0184 9.85717 22.0266 7.21 17.7061ZM16.6385 11.5632V9.03375C16.2211 8.58738 16.0838 8.13037 16.0838 7.58835C16.0838 7.04632 16.6385 6.14295 17.5628 6.14295C18.4872 6.14295 19.2267 7.04632 19.2267 7.58835C19.2267 8.13037 19.0802 8.54702 18.6721 9.03375V11.5632H21.2603C21.2603 11.5632 22.1846 11.9245 22.1846 12.8279C22.1846 13.7313 21.2603 14.0926 21.2603 14.0926H18.6721V15.1767C18.6721 15.1767 19.5964 15.538 19.7813 16.0801C19.9662 16.6221 19.7813 17.8868 18.8569 18.2482C18.8569 16.9834 18.731 16.6356 17.9326 16.0801C16.9552 15.5918 16.7034 15.1374 16.6385 14.0926H14.0503C14.0503 14.0926 12.941 13.912 12.941 12.8279C12.941 11.7439 14.0503 11.5632 14.0503 11.5632H16.6385ZM15.3444 17.5255C15.3444 16.8028 15.7139 16.2927 16.6385 15.7187V17.3448C16.9894 17.6225 17.4123 17.861 17.8103 18.0855C18.3425 18.3857 18.8302 18.6607 19.0418 18.9709C19.4115 19.5129 19.7257 20.5361 19.0418 20.9583C19.0418 20.9583 18.3023 19.6936 17.3779 19.3322C16.4536 18.9709 15.3444 18.2482 15.3444 17.5255ZM17.0082 19.5129L16.4536 19.1515C16.4536 19.1515 15.899 19.6936 16.0838 20.2356C16.2062 20.5943 16.4095 20.7453 16.7473 20.9962C16.92 21.1244 17.1278 21.2788 17.3779 21.5003C18.1174 22.1553 18.1174 23.3071 18.1174 23.3071C18.1247 23.4738 19.2087 22.1874 19.0418 21.5003C18.8749 20.8132 18.1273 20.2841 17.0082 19.5129Z" fill="#F50B0B"/>
</svg>
