<svg width="351" height="66" viewBox="0 0 351 66" fill="none" xmlns="http://www.w3.org/2000/svg">
<path fill-rule="evenodd" clip-rule="evenodd" d="M37.3729 2.72561C38.1255 2.72561 38.7357 2.11546 38.7357 1.3628C38.7357 0.610149 38.1255 0 37.3729 0C36.6202 0 36.0101 0.610149 36.0101 1.3628C36.0101 2.11546 36.6202 2.72561 37.3729 2.72561ZM15.568 8.17683C16.3207 8.17683 16.9308 7.56668 16.9308 6.81402C16.9308 6.06137 16.3207 5.45122 15.568 5.45122C14.8153 5.45122 14.2052 6.06137 14.2052 6.81402C14.2052 7.56668 14.8153 8.17683 15.568 8.17683ZM10.4575 14.3095C11.7746 14.3095 12.8424 13.2417 12.8424 11.9245C12.8424 10.6074 11.7746 9.53964 10.4575 9.53964C9.14032 9.53964 8.07257 10.6074 8.07257 11.9245C8.07257 13.2417 9.14032 14.3095 10.4575 14.3095ZM5.34696 22.4863C6.85227 22.4863 8.07257 21.266 8.07257 19.7607C8.07257 18.2554 6.85227 17.0351 5.34696 17.0351C3.84165 17.0351 2.62134 18.2554 2.62134 19.7607C2.62134 21.266 3.84165 22.4863 5.34696 22.4863ZM11.7689 39.0558C7.56052 36.9466 3.50734 34.9153 2.28064 32.7073C0.577105 29.641 1.14493 25.439 1.9399 23.8491C-0.445005 24.1898 -0.0941138 40.2854 0.236392 40.2028C2.96205 39.5213 9.54889 42.7012 13.5237 44.6319L25.4483 51.7866C28.8553 54.0579 37.5773 58.2599 45.209 56.8971C54.7486 55.1936 60.2243 48.2673 62.244 44.6319C63.9475 41.5656 64.9696 35.0922 64.2882 31.3445C63.8557 29.4342 63.2943 27.1045 62.7921 25.0379C62.6946 24.0799 62.5154 23.1147 62.244 22.1456C62.0487 21.4481 61.8991 20.9211 61.7893 20.5434C61.8635 20.2955 61.9034 20.0327 61.9034 19.7607C61.9034 18.2554 60.6831 17.0351 59.1778 17.0351C57.6724 17.0351 56.4522 18.2554 56.4522 19.7607C56.4522 21.266 57.6724 22.4863 59.1778 22.4863C60.3558 22.4863 61.3592 21.739 61.7399 20.6925C61.9058 21.3977 62.1643 22.4593 62.4651 23.6941C62.5697 24.1237 62.6794 24.5742 62.7921 25.0379C63.5513 32.4995 59.3508 39.5275 55.0893 44.6319C50.1674 50.5272 42.1339 53.4933 36.01 52.1273C32.4041 51.3229 26.8461 47.8603 21.9766 44.8265L21.9763 44.8264L21.9762 44.8263L21.9755 44.8259L21.9748 44.8254L21.9741 44.825L21.9739 44.8248C20.0093 43.6009 18.1569 42.4469 16.5901 41.5656M0.917834 43.2691C0.727419 43.3571 1.34514 45.4306 1.93994 46.6761C1.93994 46.6761 4.32485 45.9947 7.05046 45.9947C9.77608 45.9947 10.8351 46.1579 13.4342 46.9785C9.71306 44.4543 1.17148 42.5444 0.917834 43.2691ZM6.70976 54.5122C6.4372 54.2396 4.32485 51.2188 3.30275 49.7424C4.9921 48.9383 8.07257 48.3796 12.5017 49.4017C15.8415 50.1724 22.9004 53.4878 27.1642 55.4904L27.1643 55.4905C28.5549 56.1436 29.6482 56.6571 30.2182 56.8971C32.5041 57.8597 38.7132 60.1045 46.9125 59.282C54.4141 58.5295 59.327 52.5418 59.7233 52.0395C59.6602 52.1228 59.4808 52.3653 59.1778 52.8087C57.0691 55.8941 53.0016 59.5699 47.2532 61.3262C43.0031 62.6247 33.608 61.1064 28.1739 58.6006C23.6847 56.5305 18.1437 54.0229 13.5237 53.8308C10.4047 53.7011 8.60999 54.1685 7.64018 54.4211C7.11315 54.5583 6.82973 54.6322 6.70976 54.5122ZM10.7982 58.6006C11.6705 59.523 14.3133 61.4222 16.5901 62.689C20.9922 65.1385 35.6689 66.9941 39.7578 65.4146C34.6347 64.6208 31.748 64.0295 26.4704 61.6669C18.8108 58.5025 15.2945 57.723 10.7982 58.6006ZM56.4522 11.9245C56.4522 13.2417 55.3844 14.3095 54.0672 14.3095C52.7501 14.3095 51.6823 13.2417 51.6823 11.9245C51.6823 10.6074 52.7501 9.53964 54.0672 9.53964C55.3844 9.53964 56.4522 10.6074 56.4522 11.9245ZM50.3195 6.81402C50.3195 7.56668 49.7094 8.17683 48.9567 8.17683C48.2041 8.17683 47.5939 7.56668 47.5939 6.81402C47.5939 6.06137 48.2041 5.45122 48.9567 5.45122C49.7094 5.45122 50.3195 6.06137 50.3195 6.81402ZM27.8332 1.3628C27.8332 2.11546 27.2231 2.72561 26.4704 2.72561C25.7178 2.72561 25.1076 2.11546 25.1076 1.3628C25.1076 0.610149 25.7178 0 26.4704 0C27.2231 0 27.8332 0.610149 27.8332 1.3628ZM24.5305 15.3316C12.4229 16.8803 8.39109 25.2119 13.2874 33.3887C18.1658 41.5358 25.0049 45.2918 33.6349 50.0312L33.7294 50.0831C41.9619 48.3389 48.0945 42.247 52.5236 33.3887C56.9527 24.5305 50.9827 15.7805 39.9177 15.3316C40.563 9.05959 37.2828 6.21904 32.3666 6.01505C27.3004 6.41065 23.7369 9.04601 24.5305 15.3316ZM30.6631 17.0351V21.8049H25.8933C25.8933 21.8049 23.8491 22.1456 23.8491 24.1898C23.8491 26.234 25.8933 26.5747 25.8933 26.5747H30.6631C30.7829 28.5448 31.2469 29.4017 33.048 30.3224C34.5195 31.3701 34.7515 32.0259 34.7515 34.4108C36.455 33.7294 36.7957 31.3445 36.455 30.3224C36.1143 29.3003 34.4108 28.6189 34.4108 28.6189V26.5747H39.1807C39.1807 26.5747 40.8842 25.8933 40.8842 24.1898C40.8842 22.4863 39.1807 21.8049 39.1807 21.8049H34.4108V17.0351C35.1631 16.1172 35.4329 15.3316 35.4329 14.3095C35.4329 13.2873 34.0701 11.5838 32.3666 11.5838C30.6631 11.5838 29.641 13.2873 29.641 14.3095C29.641 15.3316 29.894 16.1933 30.6631 17.0351ZM30.6631 29.641C28.9592 30.7234 28.2782 31.6852 28.2782 33.048C28.2782 34.4108 30.3224 35.7736 32.0259 36.455C33.7294 37.1364 35.0922 39.5213 35.0922 39.5213C36.3526 38.7253 35.7736 36.7957 35.0922 35.7736C34.7024 35.1888 33.8035 34.6701 32.8226 34.104C32.0892 33.6808 31.3098 33.231 30.6631 32.7073V29.641ZM30.3224 36.1143L31.3445 36.7957C33.4069 38.2501 34.7846 39.2478 35.0922 40.5434C35.3998 41.8391 33.4021 44.2649 33.3887 43.9505C33.3887 43.9505 33.3887 41.7785 32.0259 40.5434C31.565 40.1257 31.182 39.8347 30.8638 39.5928C30.2412 39.1197 29.8665 38.8349 29.641 38.1585C29.3003 37.1364 30.3224 36.1143 30.3224 36.1143ZM82.1741 24.976V54H92.9901V24.976H100.478V16.496H74.6861V24.976H82.1741ZM117.172 51.504L117.492 51.152L118.516 54H127.284L126.388 51.504V38.48C126.388 36.1333 126.207 34.2027 125.844 32.688C125.481 31.152 124.863 29.8933 123.988 28.912C123.135 27.9093 122.015 27.2053 120.628 26.8C119.241 26.3733 117.481 26.16 115.348 26.16C112.937 26.16 110.569 26.5227 108.244 27.248C105.919 27.952 104.031 28.7733 102.58 29.712L104.628 34.064C105.439 33.6373 106.559 33.2747 107.988 32.976C109.417 32.656 110.793 32.496 112.116 32.496C113.652 32.496 114.761 32.7627 115.444 33.296C116.148 33.8293 116.5 34.7467 116.5 36.048V36.624C115.775 36.624 115.017 36.656 114.228 36.72C113.439 36.784 112.543 36.912 111.54 37.104C110.537 37.296 109.577 37.5413 108.66 37.84C107.764 38.1173 106.868 38.512 105.972 39.024C105.076 39.5147 104.308 40.08 103.668 40.72C103.028 41.36 102.505 42.1493 102.1 43.088C101.695 44.0053 101.492 45.0187 101.492 46.128C101.492 51.824 104.372 54.672 110.132 54.672C110.985 54.672 111.817 54.544 112.628 54.288C113.439 54.0533 114.121 53.7653 114.676 53.424C115.252 53.0827 115.753 52.7413 116.18 52.4C116.628 52.0587 116.959 51.76 117.172 51.504ZM115.732 48.88C115.497 48.9867 115.241 49.04 114.964 49.04C113.151 49.04 112.244 47.7067 112.244 45.04C112.244 43.5467 112.628 42.448 113.396 41.744C114.164 41.0187 115.199 40.656 116.5 40.656V48.336L116.308 48.528C116.18 48.6347 115.988 48.752 115.732 48.88ZM140.464 52.496C142.342 53.4987 144.475 54 146.864 54C148.635 54 150.203 53.6373 151.568 52.912C152.955 52.1653 154.086 51.1413 154.96 49.84C155.835 48.5387 156.496 47.0453 156.944 45.36C157.392 43.6533 157.616 41.7973 157.616 39.792C157.616 35.5253 156.784 32.1867 155.12 29.776C153.478 27.3653 150.896 26.16 147.376 26.16C146.544 26.16 145.755 26.256 145.008 26.448C144.283 26.64 143.632 26.896 143.056 27.216C142.48 27.536 141.99 27.8667 141.584 28.208C141.179 28.5493 140.806 28.912 140.464 29.296V12.08H138.384L128.112 13.68V16.656L130.032 17.808V54H140.464V52.496ZM146.448 42.992C146.448 47.3653 145.019 49.552 142.16 49.552C141.904 49.552 141.638 49.5413 141.36 49.52C141.083 49.4773 140.784 49.4133 140.464 49.328V32.688C141.275 32.112 142.075 31.824 142.864 31.824C143.91 31.824 144.763 32.3253 145.424 33.328C146.107 34.3093 146.448 35.7173 146.448 37.552V42.992ZM174.901 31.696C175.178 32.8267 175.317 34.7467 175.317 37.456H170.453V34.768C170.453 34 170.474 33.3707 170.517 32.88C170.581 32.368 170.709 31.8773 170.901 31.408C171.093 30.9173 171.392 30.5653 171.797 30.352C172.202 30.1173 172.725 30 173.365 30C174.112 30 174.624 30.5653 174.901 31.696ZM166.517 53.584C168.288 54.3093 170.368 54.672 172.757 54.672C174.037 54.672 175.381 54.5227 176.789 54.224C178.197 53.9253 179.658 53.3493 181.173 52.496C182.709 51.6213 183.872 50.544 184.661 49.264L182.773 46.032C182.176 46.5867 181.429 47.0667 180.533 47.472C179.658 47.8773 178.784 48.176 177.909 48.368C177.056 48.56 176.256 48.656 175.509 48.656C174.741 48.656 174.09 48.592 173.557 48.464C173.024 48.336 172.501 48.08 171.989 47.696C171.477 47.312 171.082 46.7147 170.805 45.904C170.549 45.0933 170.421 44.0587 170.421 42.8V42.192H185.045V38.64C185.045 34.2667 184.138 31.0987 182.325 29.136C180.512 27.152 177.504 26.16 173.301 26.16C168.928 26.16 165.525 27.3867 163.093 29.84C160.661 32.2933 159.445 35.9093 159.445 40.688C159.445 42.6933 159.68 44.5173 160.149 46.16C160.618 47.7813 161.354 49.2427 162.357 50.544C163.381 51.8453 164.768 52.8587 166.517 53.584ZM202.464 31.696C202.741 32.8267 202.88 34.7467 202.88 37.456H198.016V34.768C198.016 34 198.037 33.3707 198.08 32.88C198.144 32.368 198.272 31.8773 198.464 31.408C198.656 30.9173 198.954 30.5653 199.36 30.352C199.765 30.1173 200.288 30 200.928 30C201.674 30 202.186 30.5653 202.464 31.696ZM194.08 53.584C195.85 54.3093 197.93 54.672 200.32 54.672C201.6 54.672 202.944 54.5227 204.352 54.224C205.76 53.9253 207.221 53.3493 208.736 52.496C210.272 51.6213 211.434 50.544 212.224 49.264L210.336 46.032C209.738 46.5867 208.992 47.0667 208.096 47.472C207.221 47.8773 206.346 48.176 205.472 48.368C204.618 48.56 203.818 48.656 203.072 48.656C202.304 48.656 201.653 48.592 201.12 48.464C200.586 48.336 200.064 48.08 199.552 47.696C199.04 47.312 198.645 46.7147 198.368 45.904C198.112 45.0933 197.984 44.0587 197.984 42.8V42.192H212.608V38.64C212.608 34.2667 211.701 31.0987 209.888 29.136C208.074 27.152 205.066 26.16 200.864 26.16C196.49 26.16 193.088 27.3867 190.656 29.84C188.224 32.2933 187.008 35.9093 187.008 40.688C187.008 42.6933 187.242 44.5173 187.712 46.16C188.181 47.7813 188.917 49.2427 189.92 50.544C190.944 51.8453 192.33 52.8587 194.08 53.584ZM226.058 52.496C227.935 53.4987 230.069 54 232.458 54C234.229 54 235.797 53.6373 237.162 52.912C238.549 52.1653 239.679 51.1413 240.554 49.84C241.429 48.5387 242.09 47.0453 242.538 45.36C242.986 43.6533 243.21 41.7973 243.21 39.792C243.21 35.5253 242.378 32.1867 240.714 29.776C239.071 27.3653 236.49 26.16 232.97 26.16C232.138 26.16 231.349 26.256 230.602 26.448C229.877 26.64 229.226 26.896 228.65 27.216C228.074 27.536 227.583 27.8667 227.178 28.208C226.773 28.5493 226.399 28.912 226.058 29.296V12.08H223.978L213.706 13.68V16.656L215.626 17.808V54H226.058V52.496ZM232.042 42.992C232.042 47.3653 230.613 49.552 227.754 49.552C227.498 49.552 227.231 49.5413 226.954 49.52C226.677 49.4773 226.378 49.4133 226.058 49.328V32.688C226.869 32.112 227.669 31.824 228.458 31.824C229.503 31.824 230.357 32.3253 231.018 33.328C231.701 34.3093 232.042 35.7173 232.042 37.552V42.992ZM259.035 54H269.627V38.704H277.851V54H288.443V16.496H277.851V31.344H269.627V16.496H259.035V54ZM307.891 50.928C308.296 50.4373 308.563 50.0427 308.691 49.744L309.683 54H318.547V26.8H306.355V30.48L308.083 31.632V46.672C308.019 46.7147 307.923 46.7893 307.795 46.896C307.688 46.9813 307.603 47.0453 307.539 47.088C307.496 47.1307 307.422 47.1947 307.315 47.28C307.208 47.344 307.123 47.3973 307.059 47.44C306.995 47.4827 306.91 47.536 306.803 47.6C306.696 47.6427 306.6 47.6747 306.515 47.696C306.451 47.7173 306.366 47.7493 306.259 47.792L305.939 47.856H305.587C304.691 47.856 304.072 47.632 303.731 47.184C303.39 46.7147 303.23 46 303.251 45.04V26.8H291.635V30.48L292.755 31.632V43.024C292.755 47.2053 293.395 50.192 294.675 51.984C295.976 53.776 298.131 54.672 301.139 54.672C302.099 54.672 303.048 54.4587 303.987 54.032C304.926 53.6267 305.715 53.136 306.355 52.56C306.995 51.9627 307.507 51.4187 307.891 50.928ZM332.933 52.496C334.81 53.4987 336.944 54 339.333 54C341.104 54 342.672 53.6373 344.037 52.912C345.424 52.1653 346.554 51.1413 347.429 49.84C348.304 48.5387 348.965 47.0453 349.413 45.36C349.861 43.6533 350.085 41.7973 350.085 39.792C350.085 35.5253 349.253 32.1867 347.589 29.776C345.946 27.3653 343.365 26.16 339.845 26.16C339.013 26.16 338.224 26.256 337.477 26.448C336.752 26.64 336.101 26.896 335.525 27.216C334.949 27.536 334.458 27.8667 334.053 28.208C333.648 28.5493 333.274 28.912 332.933 29.296V12.08H330.853L320.581 13.68V16.656L322.501 17.808V54H332.933V52.496ZM338.917 42.992C338.917 47.3653 337.488 49.552 334.629 49.552C334.373 49.552 334.106 49.5413 333.829 49.52C333.552 49.4773 333.253 49.4133 332.933 49.328V32.688C333.744 32.112 334.544 31.824 335.333 31.824C336.378 31.824 337.232 32.3253 337.893 33.328C338.576 34.3093 338.917 35.7173 338.917 37.552V42.992Z" fill="white"/>
</svg>
