<svg width="65" height="66" viewBox="0 0 65 66" fill="none" xmlns="http://www.w3.org/2000/svg">
<path fill-rule="evenodd" clip-rule="evenodd" d="M38.7357 1.36281C38.7357 2.11546 38.1255 2.72561 37.3729 2.72561C36.6202 2.72561 36.0101 2.11546 36.0101 1.36281C36.0101 0.610149 36.6202 0 37.3729 0C38.1255 0 38.7357 0.610149 38.7357 1.36281ZM16.9308 6.81402C16.9308 7.56668 16.3207 8.17683 15.568 8.17683C14.8153 8.17683 14.2052 7.56668 14.2052 6.81402C14.2052 6.06137 14.8153 5.45122 15.568 5.45122C16.3207 5.45122 16.9308 6.06137 16.9308 6.81402ZM12.8424 11.9245C12.8424 13.2417 11.7746 14.3095 10.4575 14.3095C9.14033 14.3095 8.07257 13.2417 8.07257 11.9245C8.07257 10.6074 9.14033 9.53964 10.4575 9.53964C11.7746 9.53964 12.8424 10.6074 12.8424 11.9245ZM8.07257 19.7607C8.07257 21.266 6.85227 22.4863 5.34696 22.4863C3.84164 22.4863 2.62135 21.266 2.62135 19.7607C2.62135 18.2554 3.84164 17.0351 5.34696 17.0351C6.85227 17.0351 8.07257 18.2554 8.07257 19.7607ZM2.28064 32.7073C3.50733 34.9153 7.56052 36.9466 11.7689 39.0557L11.7689 39.0558C13.4048 39.8756 15.0642 40.7072 16.5901 41.5656C18.157 42.4469 20.0095 43.601 21.9741 44.825L21.9748 44.8254L21.9755 44.8259L21.9762 44.8263L21.9763 44.8264L21.9766 44.8265C26.8461 47.8603 32.4041 51.3229 36.01 52.1273C42.1339 53.4933 50.1674 50.5272 55.0893 44.6319C59.3508 39.5275 63.5513 32.4995 62.7921 25.0379C63.2943 27.1045 63.8557 29.4342 64.2882 31.3445C64.9696 35.0922 63.9475 41.5656 62.244 44.6319C60.2243 48.2673 54.7486 55.1936 45.209 56.8971C37.5772 58.2599 28.8553 54.0579 25.4483 51.7866L13.5237 44.6319C9.54889 42.7012 2.96205 39.5213 0.236392 40.2028C-0.0941123 40.2854 -0.445008 24.1898 1.9399 23.8491C1.14493 25.439 0.577096 29.641 2.28064 32.7073ZM62.7921 25.0379C62.6794 24.5742 62.5697 24.1237 62.4651 23.6941C62.1643 22.4593 61.9058 21.3977 61.7399 20.6925C61.3592 21.739 60.3558 22.4863 59.1778 22.4863C57.6724 22.4863 56.4521 21.266 56.4521 19.7607C56.4521 18.2554 57.6724 17.0351 59.1778 17.0351C60.6831 17.0351 61.9034 18.2554 61.9034 19.7607C61.9034 20.0327 61.8635 20.2955 61.7893 20.5434C61.8991 20.9211 62.0487 21.4481 62.244 22.1456C62.5154 23.1147 62.6946 24.0799 62.7921 25.0379ZM1.93994 46.6761C1.34514 45.4306 0.72741 43.3571 0.917839 43.2691C1.17148 42.5444 9.71306 44.4543 13.4342 46.9785C10.835 46.1579 9.77607 45.9947 7.05046 45.9947C4.32485 45.9947 1.93994 46.6761 1.93994 46.6761ZM3.30275 49.7424C4.32485 51.2188 6.4372 54.2396 6.70976 54.5122C6.82972 54.6322 7.11314 54.5583 7.64019 54.4211C8.60999 54.1685 10.4047 53.7011 13.5237 53.8308C18.1437 54.0229 23.6847 56.5305 28.1739 58.6006C33.608 61.1064 43.0031 62.6247 47.2532 61.3262C53.0016 59.5699 57.0691 55.8941 59.1778 52.8087C59.4808 52.3653 59.6602 52.1228 59.7233 52.0395C59.327 52.5418 54.4141 58.5295 46.9125 59.282C38.7132 60.1045 32.5041 57.8597 30.2181 56.8971C29.6482 56.6571 28.5549 56.1436 27.1643 55.4905C22.9005 53.4879 15.8415 50.1724 12.5017 49.4017C8.07257 48.3796 4.9921 48.9383 3.30275 49.7424ZM16.5901 62.689C14.3133 61.4222 11.6705 59.523 10.7982 58.6006C15.2945 57.723 18.8108 58.5025 26.4704 61.6669C31.748 64.0295 34.6347 64.6208 39.7578 65.4146C35.6689 66.9941 20.9922 65.1385 16.5901 62.689ZM54.0672 14.3095C55.3844 14.3095 56.4521 13.2417 56.4521 11.9245C56.4521 10.6074 55.3844 9.53964 54.0672 9.53964C52.7501 9.53964 51.6823 10.6074 51.6823 11.9245C51.6823 13.2417 52.7501 14.3095 54.0672 14.3095ZM48.9567 8.17683C49.7094 8.17683 50.3195 7.56668 50.3195 6.81402C50.3195 6.06137 49.7094 5.45122 48.9567 5.45122C48.2041 5.45122 47.5939 6.06137 47.5939 6.81402C47.5939 7.56668 48.2041 8.17683 48.9567 8.17683ZM26.4704 2.72561C27.2231 2.72561 27.8332 2.11546 27.8332 1.36281C27.8332 0.610149 27.2231 0 26.4704 0C25.7178 0 25.1076 0.610149 25.1076 1.36281C25.1076 2.11546 25.7178 2.72561 26.4704 2.72561ZM13.2874 33.3887C8.39108 25.2119 12.4229 16.8803 24.5305 15.3316C23.7369 9.04601 27.3004 6.41065 32.3666 6.01505C37.2828 6.21904 40.563 9.05959 39.9177 15.3316C50.9827 15.7805 56.9527 24.5305 52.5236 33.3887C48.0945 42.247 41.9619 48.3389 33.7294 50.0831L33.6349 50.0312C25.0049 45.2918 18.1658 41.5358 13.2874 33.3887ZM30.6631 21.8049V17.0351C29.894 16.1933 29.641 15.3316 29.641 14.3095C29.641 13.2873 30.6631 11.5838 32.3666 11.5838C34.0701 11.5838 35.4329 13.2873 35.4329 14.3095C35.4329 15.3316 35.1631 16.1172 34.4108 17.0351V21.8049H39.1806C39.1806 21.8049 40.8841 22.4863 40.8841 24.1898C40.8841 25.8933 39.1806 26.5747 39.1806 26.5747H34.4108V28.6189C34.4108 28.6189 36.1143 29.3003 36.455 30.3224C36.7957 31.3445 36.455 33.7294 34.7515 34.4108C34.7515 32.0259 34.5195 31.3701 33.048 30.3224C31.2469 29.4017 30.7829 28.5448 30.6631 26.5747H25.8933C25.8933 26.5747 23.8491 26.234 23.8491 24.1898C23.8491 22.1456 25.8933 21.8049 25.8933 21.8049H30.6631ZM28.2782 33.048C28.2782 31.6852 28.9592 30.7234 30.6631 29.641V32.7073C31.3098 33.231 32.0892 33.6808 32.8227 34.104C33.8035 34.6701 34.7024 35.1888 35.0922 35.7736C35.7736 36.7957 36.3526 38.7253 35.0922 39.5213C35.0922 39.5213 33.7294 37.1364 32.0259 36.455C30.3224 35.7736 28.2782 34.4108 28.2782 33.048ZM31.3445 36.7957L30.3224 36.1143C30.3224 36.1143 29.3003 37.1364 29.641 38.1585C29.8665 38.8349 30.2411 39.1197 30.8638 39.5928C31.182 39.8347 31.565 40.1257 32.0259 40.5434C33.3887 41.7785 33.3887 43.9505 33.3887 43.9505C33.4021 44.2649 35.3998 41.8391 35.0922 40.5434C34.7846 39.2478 33.4069 38.2501 31.3445 36.7957Z" fill="#F50B0B"/>
</svg>
