<svg width="354" height="63" viewBox="0 0 354 63" fill="none" xmlns="http://www.w3.org/2000/svg">
<path d="M70.1741 59V29.976H62.6861V21.496H88.4781V29.976H80.9901V59H70.1741ZM105.492 56.152L105.172 56.504C104.959 56.76 104.628 57.0587 104.18 57.4C103.753 57.7413 103.252 58.0827 102.676 58.424C102.121 58.7653 101.439 59.0533 100.628 59.288C99.8172 59.544 98.9852 59.672 98.1319 59.672C92.3719 59.672 89.4919 56.824 89.4919 51.128C89.4919 50.0187 89.6945 49.0053 90.0999 48.088C90.5052 47.1493 91.0279 46.36 91.6679 45.72C92.3079 45.08 93.0759 44.5147 93.9719 44.024C94.8679 43.512 95.7639 43.1173 96.6599 42.84C97.5772 42.5413 98.5372 42.296 99.5399 42.104C100.543 41.912 101.439 41.784 102.228 41.72C103.017 41.656 103.775 41.624 104.5 41.624V41.048C104.5 39.7467 104.148 38.8293 103.444 38.296C102.761 37.7627 101.652 37.496 100.116 37.496C98.7932 37.496 97.4172 37.656 95.9879 37.976C94.5585 38.2747 93.4385 38.6373 92.6279 39.064L90.5799 34.712C92.0305 33.7733 93.9185 32.952 96.2439 32.248C98.5692 31.5227 100.937 31.16 103.348 31.16C105.481 31.16 107.241 31.3733 108.628 31.8C110.015 32.2053 111.135 32.9093 111.988 33.912C112.863 34.8933 113.481 36.152 113.844 37.688C114.207 39.2027 114.388 41.1333 114.388 43.48V56.504L115.284 59H106.516L105.492 56.152ZM102.964 54.04C103.241 54.04 103.497 53.9867 103.732 53.88C103.988 53.752 104.18 53.6347 104.308 53.528C104.436 53.4 104.5 53.336 104.5 53.336V45.656C103.199 45.656 102.164 46.0187 101.396 46.744C100.628 47.448 100.244 48.5467 100.244 50.04C100.244 52.7067 101.151 54.04 102.964 54.04ZM134.864 59C132.475 59 130.342 58.4987 128.464 57.496V59H118.032V22.808L116.112 21.656V18.68L126.384 17.08H128.464V34.296C128.806 33.912 129.179 33.5493 129.584 33.208C129.99 32.8667 130.48 32.536 131.056 32.216C131.632 31.896 132.283 31.64 133.008 31.448C133.755 31.256 134.544 31.16 135.376 31.16C138.896 31.16 141.478 32.3653 143.12 34.776C144.784 37.1867 145.616 40.5253 145.616 44.792C145.616 46.7973 145.392 48.6533 144.944 50.36C144.496 52.0453 143.835 53.5387 142.96 54.84C142.086 56.1413 140.955 57.1653 139.568 57.912C138.203 58.6373 136.635 59 134.864 59ZM130.16 54.552C133.019 54.552 134.448 52.3653 134.448 47.992V42.552C134.448 40.7173 134.107 39.3093 133.424 38.328C132.763 37.3253 131.91 36.824 130.864 36.824C130.075 36.824 129.275 37.112 128.464 37.688V54.328C128.784 54.4133 129.083 54.4773 129.36 54.52C129.638 54.5413 129.904 54.552 130.16 54.552ZM163.317 42.456C163.317 39.7467 163.178 37.8267 162.901 36.696C162.624 35.5653 162.112 35 161.365 35C160.725 35 160.202 35.1173 159.797 35.352C159.392 35.5653 159.093 35.9173 158.901 36.408C158.709 36.8773 158.581 37.368 158.517 37.88C158.474 38.3707 158.453 39 158.453 39.768V42.456H163.317ZM160.757 59.672C158.368 59.672 156.288 59.3093 154.517 58.584C152.768 57.8587 151.381 56.8453 150.357 55.544C149.354 54.2427 148.618 52.7813 148.149 51.16C147.68 49.5173 147.445 47.6933 147.445 45.688C147.445 40.9093 148.661 37.2933 151.093 34.84C153.525 32.3867 156.928 31.16 161.301 31.16C165.504 31.16 168.512 32.152 170.325 34.136C172.138 36.0987 173.045 39.2667 173.045 43.64V47.192H158.421V47.8C158.421 49.0587 158.549 50.0933 158.805 50.904C159.082 51.7147 159.477 52.312 159.989 52.696C160.501 53.08 161.024 53.336 161.557 53.464C162.09 53.592 162.741 53.656 163.509 53.656C164.256 53.656 165.056 53.56 165.909 53.368C166.784 53.176 167.658 52.8773 168.533 52.472C169.429 52.0667 170.176 51.5867 170.773 51.032L172.661 54.264C171.872 55.544 170.709 56.6213 169.173 57.496C167.658 58.3493 166.197 58.9253 164.789 59.224C163.381 59.5227 162.037 59.672 160.757 59.672ZM190.88 42.456C190.88 39.7467 190.741 37.8267 190.464 36.696C190.186 35.5653 189.674 35 188.928 35C188.288 35 187.765 35.1173 187.36 35.352C186.954 35.5653 186.656 35.9173 186.464 36.408C186.272 36.8773 186.144 37.368 186.08 37.88C186.037 38.3707 186.016 39 186.016 39.768V42.456H190.88ZM188.32 59.672C185.93 59.672 183.85 59.3093 182.08 58.584C180.33 57.8587 178.944 56.8453 177.92 55.544C176.917 54.2427 176.181 52.7813 175.712 51.16C175.242 49.5173 175.008 47.6933 175.008 45.688C175.008 40.9093 176.224 37.2933 178.656 34.84C181.088 32.3867 184.49 31.16 188.864 31.16C193.066 31.16 196.074 32.152 197.888 34.136C199.701 36.0987 200.608 39.2667 200.608 43.64V47.192H185.984V47.8C185.984 49.0587 186.112 50.0933 186.368 50.904C186.645 51.7147 187.04 52.312 187.552 52.696C188.064 53.08 188.586 53.336 189.12 53.464C189.653 53.592 190.304 53.656 191.072 53.656C191.818 53.656 192.618 53.56 193.472 53.368C194.346 53.176 195.221 52.8773 196.096 52.472C196.992 52.0667 197.738 51.5867 198.336 51.032L200.224 54.264C199.434 55.544 198.272 56.6213 196.736 57.496C195.221 58.3493 193.76 58.9253 192.352 59.224C190.944 59.5227 189.6 59.672 188.32 59.672ZM220.458 59C218.069 59 215.935 58.4987 214.058 57.496V59H203.626V22.808L201.706 21.656V18.68L211.978 17.08H214.058V34.296C214.399 33.912 214.773 33.5493 215.178 33.208C215.583 32.8667 216.074 32.536 216.65 32.216C217.226 31.896 217.877 31.64 218.602 31.448C219.349 31.256 220.138 31.16 220.97 31.16C224.49 31.16 227.071 32.3653 228.714 34.776C230.378 37.1867 231.21 40.5253 231.21 44.792C231.21 46.7973 230.986 48.6533 230.538 50.36C230.09 52.0453 229.429 53.5387 228.554 54.84C227.679 56.1413 226.549 57.1653 225.162 57.912C223.797 58.6373 222.229 59 220.458 59ZM215.754 54.552C218.613 54.552 220.042 52.3653 220.042 47.992V42.552C220.042 40.7173 219.701 39.3093 219.018 38.328C218.357 37.3253 217.503 36.824 216.458 36.824C215.669 36.824 214.869 37.112 214.058 37.688V54.328C214.378 54.4133 214.677 54.4773 214.954 54.52C215.231 54.5413 215.498 54.552 215.754 54.552ZM257.627 59H247.035V21.496H257.627V36.344H265.851V21.496H276.443V59H265.851V43.704H257.627V59ZM296.691 54.744C296.563 55.0427 296.296 55.4373 295.891 55.928C295.507 56.4187 294.995 56.9627 294.355 57.56C293.715 58.136 292.926 58.6267 291.987 59.032C291.048 59.4587 290.099 59.672 289.139 59.672C286.131 59.672 283.976 58.776 282.675 56.984C281.395 55.192 280.755 52.2053 280.755 48.024V36.632L279.635 35.48V31.8H291.251V50.04C291.23 51 291.39 51.7147 291.731 52.184C292.072 52.632 292.691 52.856 293.587 52.856C293.715 52.856 293.832 52.856 293.939 52.856C294.046 52.8347 294.152 52.8133 294.259 52.792C294.366 52.7493 294.451 52.7173 294.515 52.696C294.6 52.6747 294.696 52.6427 294.803 52.6C294.91 52.536 294.995 52.4827 295.059 52.44C295.123 52.3973 295.208 52.344 295.315 52.28C295.422 52.1947 295.496 52.1307 295.539 52.088C295.603 52.0453 295.688 51.9813 295.795 51.896C295.923 51.7893 296.019 51.7147 296.083 51.672V36.632L294.355 35.48V31.8H306.547V59H297.683L296.691 54.744ZM327.333 59C324.944 59 322.81 58.4987 320.933 57.496V59H310.501V22.808L308.581 21.656V18.68L318.853 17.08H320.933V34.296C321.274 33.912 321.648 33.5493 322.053 33.208C322.458 32.8667 322.949 32.536 323.525 32.216C324.101 31.896 324.752 31.64 325.477 31.448C326.224 31.256 327.013 31.16 327.845 31.16C331.365 31.16 333.946 32.3653 335.589 34.776C337.253 37.1867 338.085 40.5253 338.085 44.792C338.085 46.7973 337.861 48.6533 337.413 50.36C336.965 52.0453 336.304 53.5387 335.429 54.84C334.554 56.1413 333.424 57.1653 332.037 57.912C330.672 58.6373 329.104 59 327.333 59ZM322.629 54.552C325.488 54.552 326.917 52.3653 326.917 47.992V42.552C326.917 40.7173 326.576 39.3093 325.893 38.328C325.232 37.3253 324.378 36.824 323.333 36.824C322.544 36.824 321.744 37.112 320.933 37.688V54.328C321.253 54.4133 321.552 54.4773 321.829 54.52C322.106 54.5413 322.373 54.552 322.629 54.552Z" fill="white"/>
<path fill-rule="evenodd" clip-rule="evenodd" d="M30.6274 10.0531C30.6274 10.6347 30.145 11.1062 29.5499 11.1062C28.9548 11.1062 28.4723 10.6347 28.4723 10.0531C28.4723 9.47148 28.9548 9 29.5499 9C30.145 9 30.6274 9.47148 30.6274 10.0531ZM13.3868 14.2654C13.3868 14.847 12.9044 15.3185 12.3093 15.3185C11.7141 15.3185 11.2317 14.847 11.2317 14.2654C11.2317 13.6838 11.7141 13.2123 12.3093 13.2123C12.9044 13.2123 13.3868 13.6838 13.3868 14.2654ZM10.1542 18.2144C10.1542 19.2322 9.30994 20.0573 8.2685 20.0573C7.22706 20.0573 6.3828 19.2322 6.3828 18.2144C6.3828 17.1966 7.22706 16.3715 8.2685 16.3715C9.30994 16.3715 10.1542 17.1966 10.1542 18.2144ZM6.38279 24.2696C6.38279 25.4328 5.41793 26.3758 4.22771 26.3758C3.03749 26.3758 2.07263 25.4328 2.07263 24.2696C2.07263 23.1064 3.03749 22.1635 4.22771 22.1635C5.41793 22.1635 6.38279 23.1064 6.38279 24.2696ZM1.80325 34.2738C2.77317 35.98 5.97793 37.5497 9.30537 39.1794L9.30542 39.1795L9.30545 39.1795C10.5989 39.813 11.9109 40.4556 13.1174 41.1188C14.3568 41.8002 15.8222 42.6924 17.3764 43.6387C21.2266 45.9829 25.6212 48.6586 28.4723 49.2802C33.3143 50.3357 39.6662 48.0438 43.5578 43.4883C46.9273 39.544 50.2486 34.1132 49.6483 28.3475C50.0454 29.9444 50.4893 31.7446 50.8312 33.2208C51.37 36.1167 50.5619 41.1188 49.2149 43.4883C47.618 46.2975 43.2885 51.6496 35.7457 52.9659C29.7115 54.019 22.8152 50.772 20.1214 49.0169L10.6929 43.4883C7.55009 41.9964 2.34202 39.5392 0.186909 40.0658C-0.0744124 40.1296 -0.351858 27.6921 1.53384 27.4288C0.905271 28.6574 0.456296 31.9044 1.80325 34.2738ZM49.6483 28.3475C49.5596 27.9909 49.4733 27.6444 49.3909 27.314L49.3897 27.3092L49.3892 27.3069L49.3889 27.3057L49.3883 27.3033C49.1511 26.3516 48.9472 25.5335 48.8163 24.9897C48.5153 25.7983 47.7219 26.3758 46.7905 26.3758C45.6003 26.3758 44.6354 25.4328 44.6354 24.2696C44.6354 23.1064 45.6003 22.1635 46.7905 22.1635C47.9807 22.1635 48.9456 23.1064 48.9456 24.2696C48.9456 24.4799 48.9141 24.6829 48.8554 24.8745C48.9422 25.1663 49.0605 25.5735 49.2149 26.1125C49.4295 26.8614 49.5712 27.6072 49.6483 28.3475ZM1.53387 45.0679C1.06357 44.1055 0.575146 42.5032 0.725714 42.4352C0.926262 41.8752 7.67989 43.351 10.6221 45.3015C8.56702 44.6674 7.72972 44.5413 5.57464 44.5413C3.41956 44.5413 1.53387 45.0679 1.53387 45.0679ZM2.61141 47.4373C3.41956 48.5781 5.08975 50.9124 5.30525 51.1231C5.40011 51.2158 5.6242 51.1587 6.04092 51.0527C6.80772 50.8575 8.22674 50.4963 10.6929 50.5965C14.3458 50.745 18.7269 52.6827 22.2765 54.2823C26.573 56.2186 34.0016 57.3918 37.362 56.3884C41.9072 55.0313 45.1232 52.1909 46.7905 49.8067C47.0301 49.4641 47.1719 49.2768 47.2218 49.2124C46.9083 49.6008 43.0238 54.2274 37.0926 54.8088C30.6096 55.4444 25.7002 53.7098 23.8928 52.9659C23.4421 52.7805 22.5777 52.3837 21.4782 51.879C18.1069 50.3315 12.5255 47.7696 9.88479 47.174C6.38279 46.3842 3.94714 46.816 2.61141 47.4373ZM13.1174 57.4415C11.3172 56.4626 9.22763 54.995 8.53787 54.2823C12.093 53.6041 14.8733 54.2065 20.9296 56.6517C25.1024 58.4773 27.3849 58.9343 31.4356 59.5477C28.2026 60.7682 16.5981 59.3343 13.1174 57.4415ZM42.7497 20.0573C43.7912 20.0573 44.6354 19.2322 44.6354 18.2144C44.6354 17.1966 43.7912 16.3715 42.7497 16.3715C41.7083 16.3715 40.864 17.1966 40.864 18.2144C40.864 19.2322 41.7083 20.0573 42.7497 20.0573ZM38.709 15.3185C39.3041 15.3185 39.7865 14.847 39.7865 14.2654C39.7865 13.6838 39.3041 13.2123 38.709 13.2123C38.1138 13.2123 37.6314 13.6838 37.6314 14.2654C37.6314 14.847 38.1138 15.3185 38.709 15.3185ZM20.9296 11.1062C21.5247 11.1062 22.0071 10.6347 22.0071 10.0531C22.0071 9.47148 21.5247 9 20.9296 9C20.3345 9 19.852 9.47148 19.852 10.0531C19.852 10.6347 20.3345 11.1062 20.9296 11.1062ZM10.506 34.8004C6.63463 28.4819 9.82249 22.0439 19.3957 20.8471C18.7682 15.9901 21.5858 13.9537 25.5915 13.648C29.4787 13.8056 32.0723 16.0006 31.562 20.8471C40.3109 21.194 45.0312 27.9554 41.5292 34.8004C38.0272 41.6454 33.1783 46.3528 26.6691 47.7006L26.5943 47.6604L26.5943 47.6604C19.7708 43.9982 14.3633 41.0958 10.506 34.8004ZM24.2446 25.8492V22.1635C23.6365 21.513 23.4365 20.8471 23.4365 20.0573C23.4365 19.2675 24.2446 17.9512 25.5915 17.9512C26.9385 17.9512 28.016 19.2675 28.016 20.0573C28.016 20.8471 27.8026 21.4542 27.2078 22.1635V25.8492H30.9792C30.9792 25.8492 32.3262 26.3758 32.3262 27.6921C32.3262 29.0085 30.9792 29.535 30.9792 29.535H27.2078V31.1146C27.2078 31.1146 28.5548 31.6412 28.8242 32.431C29.0935 33.2208 28.8242 35.0637 27.4772 35.5902C27.4772 33.7473 27.2937 33.2405 26.1303 32.431C24.7062 31.7195 24.3393 31.0573 24.2446 29.535H20.4732C20.4732 29.535 18.8569 29.2717 18.8569 27.6921C18.8569 26.1125 20.4732 25.8492 20.4732 25.8492H24.2446ZM22.3589 34.5371C22.3589 33.484 22.8974 32.7408 24.2446 31.9044V34.2738C24.756 34.6785 25.3722 35.026 25.9521 35.3531C26.7277 35.7905 27.4384 36.1914 27.7466 36.6433C28.2854 37.4331 28.7431 38.9241 27.7466 39.5392C27.7466 39.5392 26.6691 37.6963 25.3222 37.1698C23.9752 36.6433 22.3589 35.5902 22.3589 34.5371ZM24.7834 37.4331L23.9752 36.9065C23.9752 36.9065 23.1671 37.6963 23.4365 38.4861C23.6147 39.0088 23.911 39.2288 24.4033 39.5945L24.4033 39.5945C24.6549 39.7814 24.9577 40.0063 25.3222 40.329C26.3997 41.2834 26.3997 42.9617 26.3997 42.9617C26.4103 43.2047 27.9898 41.3302 27.7466 40.329C27.5034 39.3278 26.4141 38.5569 24.7834 37.4331Z" fill="#F50B0B"/>
</svg>
